<mxfile host="app.diagrams.net" modified="2023-10-01T15:09:58.383Z" agent="Mozilla/5.0 (Windows NT 10.0; Win64; x64) AppleWebKit/537.36 (KHTML, like Gecko) Chrome/116.0.0.0 Safari/537.36 OPR/102.0.0.0" version="22.0.0" etag="t7S1ko7b-LOecx1L3QYm" type="github">
  <diagram name="Страница — 1" id="hCOYIbJEM6u6BrnsO3wY">
    <mxGraphModel>
      <root>
        <mxCell id="0" />
        <mxCell id="1" parent="0" />
      </root>
    </mxGraphModel>
  </diagram>
</mxfile>
